<?xml version="1.0" standalone="no"?>
<!DOCTYPE svg PUBLIC "-//W3C//DTD SVG 20010904//EN"
 "http://www.w3.org/TR/2001/REC-SVG-20010904/DTD/svg10.dtd">
<svg version="1.0" xmlns="http://www.w3.org/2000/svg"
 width="32.000000pt" height="32.000000pt" viewBox="0 0 32.000000 32.000000"
 preserveAspectRatio="xMidYMid meet">

<g transform="translate(0.000000,32.000000) scale(0.100000,-0.100000)"
fill="#000000" stroke="none">
<path d="M80 197 c0 -72 1 -73 40 -112 l40 -39 34 34 c31 32 35 42 41 113 6
66 5 77 -8 77 -8 0 -18 -6 -21 -12 -5 -10 -7 -10 -12 0 -3 6 -12 12 -19 12 -7
0 -16 -6 -18 -12 -4 -10 -6 -10 -6 0 -1 18 -29 14 -34 -5 -4 -17 -5 -17 -6 0
0 9 -8 17 -16 17 -12 0 -15 -15 -15 -73z"/>
</g>
</svg>
